<?xml version="1.0" standalone="no"?>
<!DOCTYPE svg PUBLIC "-//W3C//DTD SVG 20010904//EN"
 "http://www.w3.org/TR/2001/REC-SVG-20010904/DTD/svg10.dtd">
<svg version="1.0" xmlns="http://www.w3.org/2000/svg"
 width="600.000000pt" height="600.000000pt" viewBox="0 0 600.000000 600.000000"
 preserveAspectRatio="xMidYMid meet">

<g transform="translate(0.000000,600.000000) scale(0.100000,-0.100000)"
fill="#000000" stroke="none">
<path d="M4532 4005 c118 -169 200 -396 215 -598 l6 -88 -1857 1 c-1785 2
-1857 1 -1887 -17 -47 -27 -71 -65 -77 -122 -10 -108 23 -185 91 -211 20 -7
585 -10 1860 -10 l1831 0 23 -22 c47 -44 20 -131 -46 -144 -25 -5 -28 -10 -30
-57 -4 -106 -165 -381 -307 -524 -104 -106 -112 -107 -188 -14 -81 99 -238
247 -328 309 -42 28 -118 72 -170 97 -178 85 -80 79 -1278 85 -592 3 -1085 1
-1110 -4 -136 -26 -253 -188 -237 -328 12 -102 82 -201 174 -248 l48 -25 1744
0 1743 0 -6 -58 c-3 -32 -13 -83 -22 -113 -8 -29 -12 -59 -8 -65 4 -8 3 -9 -4
-5 -7 4 -12 2 -12 -4 0 -6 -18 -49 -40 -95 -29 -60 -60 -104 -115 -163 -41
-43 -71 -83 -67 -87 4 -5 2 -5 -5 -1 -7 3 -34 -7 -62 -24 -76 -47 -157 -76
-261 -94 -85 -15 -216 -16 -1190 -13 l-1095 2 -80 24 c-44 12 -87 24 -95 24
-8 1 -17 4 -20 8 -3 3 -30 19 -60 36 -44 25 89 -112 690 -713 l745 -744 1478
0 1477 0 0 1278 0 1277 -752 750 c-413 413 -735 728 -716 700z"/>
</g>
</svg>
